# xmcd
#
# Track frame offsets:
#	150
#	20425
#	33405
#	52833
#	69957
#	89412
#	105314
#	125051
#	142433
#	152132
#	173065
#	193661
#	211805
#	220132
#	239583
#	253350
#	272725
#	288437
#	302718
#
# Disc length: 4311 seconds
#
# Revision: 1
# Processed by: cddbd v1.5.1PL0 Copyright (c) Steve Scherf et al.
# Submitted via: CDex 1.50Beta5
#
DISCID=1e10d513
DTITLE=　 - Kiss ~For Xmas Lovers~
DYEAR=1900
DGENRE=Holiday
TTITLE0=Christina Aguilera/The Cheristmas Song
TTITLE1=Stevie Wonder/Someday At Christmas
TTITLE2=Britney Spears/My Only Wish (This Year)
TTITLE3=TLC/Sleigh Ride
TTITLE4=Backstreet Boys/Christmas Time
TTITLE5='N Sync/The First Noel
TTITLE6=Monica/Grown-Up Christmas List
TTITLE7=SWV/Give Love On Christmas Day
TTITLE8=Hall and Oates/Jingle Bell Rock(Daryl's Version)
TTITLE9=Toni Braxton/Have Yourself A Merry Little Christmas
TTITLE10=Usher/This Christmas
TTITLE11=Linda Lewis/Winter Wonderland
TTITLE12=Martina McBride/Let It Snow,Let It Snow,Let It Snow
TTITLE13=Atlantic Sterr/Silver Bells
TTITLE14=Ray Parker Jr./Christmas Time Is Here...
TTITLE15=Darlene Love/All Alone Christmas
TTITLE16=Lisa Fischer/O Come All Y E Faithful
TTITLE17=Human Nature/Last Christmas (A Cappella)
TTITLE18=Douglas Pashley/Christmas Eve(English Version)
EXTD=
EXTT0=
EXTT1=
EXTT2=
EXTT3=
EXTT4=
EXTT5=
EXTT6=
EXTT7=
EXTT8=
EXTT9=
EXTT10=
EXTT11=
EXTT12=
EXTT13=
EXTT14=
EXTT15=
EXTT16=
EXTT17=
EXTT18=
PLAYORDER=
